# xmcd CD database file
# Copyright (C) 1997 Ti Kan
# 
# Track frame offsets:
#     183
#     15350
#     26485
#     40758
#     58023
#     73178
#     91248
#     109050
#     117633
#     134528
#     149005
#     165653
# 
# Disc length: 2418 seconds
# 
# Revision: 1
# Processed by: cddbd v1.4b41PL1 Copyright (c) Steve Scherf et al.
# Submitted via: DiscPlay 4.0.3
# 
DISCID=a909700c
DTITLE=Alessi - The best of
DYEAR=1900
DGENRE=
TTITLE0=Oh, Lori
TTITLE1=Joanna
TTITLE2=Seabird
TTITLE3=Don't Hold back
TTITLE4=Avalon
TTITLE5=London
TTITLE6=All for a reason
TTITLE7=Farewell
TTITLE8=Sad Songs
TTITLE9=Driftin'
TTITLE10=Dancing in the halls of Love
TTITLE11=Gimme some lovin'
EXTD=
EXTT0=
EXTT1=
EXTT2=
EXTT3=
EXTT4=
EXTT5=
EXTT6=
EXTT7=
EXTT8=
EXTT9=
EXTT10=
EXTT11=
PLAYORDER=
